# xmcd CD database file
# Copyright (C) 1993-2000  Ti Kan
#
# Track frame offsets:
#	900
#	15445
#	34820
#	52592
#	74777
#	98192
#	114312
#	128895
#	147525
#	162417
#	179577
#	196837
#	218890
#	239437
#	257382
#	275302
#
# Disc length: 3901 seconds
#
# Revision: 2
# Processed by: cddbd v1.5.2PL0 Copyright (c) Steve Scherf et al.
# Submitted via: xmcd 2.6 PL0
#
DISCID=e60f3110,fc0f1410
DTITLE=Rolling Stones - A Bigger Bang
DYEAR=1900
DGENRE=
TTITLE0=Rough Justice
TTITLE1=Let Me Down Slow
TTITLE2=It Won't Take Long
TTITLE3=Rain Fall Down
TTITLE4=Streets Of Love
TTITLE5=Back Of My Hand
TTITLE6=She Saw Me Coming
TTITLE7=Biggest Mistake
TTITLE8=This Place Is Empty
TTITLE9=Oh No, Not You Again
TTITLE10=Dangerous Beauty
TTITLE11=Laugh, I Nearly Died
TTITLE12=Sweet Neo Con
TTITLE13=Look What The Cat Dragged In
TTITLE14=Driving Too Fast
TTITLE15=Infamy
EXTD=
EXTT0=
EXTT1=
EXTT2=
EXTT3=
EXTT4=
EXTT5=
EXTT6=
EXTT7=
EXTT8=
EXTT9=
EXTT10=
EXTT11=
EXTT12=
EXTT13=
EXTT14=
EXTT15=
PLAYORDER=
